<svg id="Capa_1" enable-background="new 0 0 510.049 510.049" height="512" viewBox="0 0 510.049 510.049" width="512" xmlns="http://www.w3.org/2000/svg"><g><path id="XMLID_3011_" d="m405 87.46v107.564l7.25 10 7.75-10 10-53.784-9.522-51.216-7.813-11.294z" fill="#505882"/><path id="XMLID_3010_" d="m435 195.024v-107.568l-9.273-8.412-5.727 10.98v105l7.5 10z" fill="#39436d"/><path id="XMLID_3009_" d="m165 291.731v83.293l27.999 10 32.001-10c0-8.863 0-72.115 0-83.052l-30-10.12z" fill="#505882"/><path id="XMLID_3006_" d="m270 435.024-78 10-72-10v-60h150z" fill="#b5dbff"/><path id="XMLID_3005_" d="m377.566 60.024h-62.566l-10-15 10-15h62.569l9.999 15z" fill="#39436d"/><g fill="#505882"><path id="XMLID_3003_" d="m118.11 75.024h196.89v-60h-215.313l.106 32.913z"/><path id="XMLID_3002_" d="m60.894 120.023 76.61 102.841 22.064-10.783 21.746-30.482-68.543-92.989-29.205 7.685z"/><path id="XMLID_2999_" d="m45 435.024h300v75h-300z"/></g><circle id="XMLID_2995_" cx="60" cy="60.024" fill="#9df" r="60"/><circle id="XMLID_2992_" cx="195" cy="240.024" fill="#9df" r="60"/><path id="XMLID_2990_" d="m342.737 195.024-7.813 23.437c-8.107 24.32-6.257 50.342 5.208 73.271l26.832-13.416c-7.881-15.762-9.151-33.65-3.579-50.368l.975-2.924h55.64l10-13.5-10-16.5c-7.337 0-68.359 0-77.263 0z" fill="#f66"/><path id="XMLID_2987_" d="m375 45.024c0 24.853 20.147 45 45 45l10-45-10-45c-24.853 0-45 20.147-45 45z" fill="#9df"/><path id="XMLID_2984_" d="m420 .024v90c24.853 0 45-20.147 45-45s-20.147-45-45-45z" fill="#66b3ff"/><path id="XMLID_2983_" d="m505.075 218.461-7.813-23.437c-8.692 0-69.747 0-77.263 0v30h55.64l.975 2.923c5.572 16.719 4.302 34.607-3.579 50.369l26.832 13.416c11.465-22.928 13.315-48.95 5.208-73.271z" fill="#e62e6b"/></g></svg>